# xmcd
#
# Track frame offsets:
#	150
#	6422
#	31987
#	56518
#	73030
#	74077
#	94213
#	95678
#	115695
#	141401
#	159747
#	180047
#	181238
#	192677
#	206202
#
# Disc length: 2948 seconds
#
# Revision: 0
# Processed by: cddbd v1.5.2PL0 Copyright (c) Steve Scherf et al.
# Submitted via: EZCDAudioConverter 2.0.5.1
#
DISCID=e10b820f
DTITLE=Coral Kemuel  - Qual É A Sua Escolha ?
DYEAR=2013
DGENRE=Gospel Blues
TTITLE0=Nova Jerusalem
TTITLE1=Gracas
TTITLE2=Eu Me Achego
TTITLE3=Qual É A Sua Escolha
TTITLE4=Capela Qual É A Sua Escolha 
TTITLE5=Mascaras
TTITLE6=Capella Mascara
TTITLE7=Vou Confiar
TTITLE8=Sempre Comigo
TTITLE9=Se Liga
TTITLE10=Batalha
TTITLE11=Capella Batalha
TTITLE12=O Tempo
TTITLE13=Amigo
TTITLE14=Não Valeria
EXTD=
EXTT0=
EXTT1=
EXTT2=
EXTT3=
EXTT4=
EXTT5=
EXTT6=
EXTT7=
EXTT8=
EXTT9=
EXTT10=
EXTT11=
EXTT12=
EXTT13=
EXTT14=
PLAYORDER=
